<?xml version="1.0" encoding="UTF-8" standalone="no"?>
<svg width="24px" height="24px" viewBox="0 0 24 24" version="1.1" xmlns="http://www.w3.org/2000/svg" xmlns:xlink="http://www.w3.org/1999/xlink">
    <!-- Generator: Sketch 40 (33762) - http://www.bohemiancoding.com/sketch -->
    <title>Facebook</title>
    <desc>Created with Sketch.</desc>
    <defs></defs>
    <g id="Welcome" stroke="none" stroke-width="1" fill="none" fill-rule="evenodd">
        <g id="Desktop-HD" transform="translate(-1375.000000, -530.000000)" fill="#6A6A6A">
            <g id="Group-4" transform="translate(1375.000000, 453.000000)">
                <g id="Group-3" transform="translate(0.000000, 1.000000)">
                    <path d="M16.6582031,76.9492188 C18.1386793,77.5820344 19.4160103,78.4355415 20.4902344,79.5097656 C21.5644585,80.5839897 22.4179656,81.8613207 23.0507812,83.3417969 C23.6835969,84.822273 24,86.3749919 24,88 C24,89.8281341 23.611332,91.5527263 22.8339844,93.1738281 C22.0566367,94.79493 20.9863349,96.1640569 19.6230469,97.28125 C18.2597588,98.3984431 16.7187586,99.1796853 15,99.625 L15,90.4960938 L17.5664062,90.4960938 L18,87.4960938 L15,87.4960938 L15,84.859375 C15,83.9531205 15.4374956,83.5 16.3125,83.5 L18.2226562,83.5 L18.2226562,80.7109375 C17.6289033,80.5781243 16.9101605,80.5117188 16.0664062,80.5117188 C14.6601492,80.5117188 13.5859412,80.8691371 12.84375,81.5839844 C12.1015588,82.2988317 11.7304688,83.2695251 11.7304688,84.4960938 L11.7304688,87.4960938 L9,87.4960938 L9,90.4960938 L11.7304688,90.4960938 L11.7304688,100 C10.1288982,99.9687498 8.60547598,99.6289095 7.16015625,98.9804688 C5.71483652,98.332028 4.46875523,97.4746147 3.421875,96.4082031 C2.37499477,95.3417915 1.54297184,94.0761792 0.92578125,92.6113281 C0.308590664,91.1464771 0,89.609383 0,88 C0,86.3749919 0.316403086,84.822273 0.94921875,83.3417969 C1.58203441,81.8613207 2.4355415,80.5839897 3.50976562,79.5097656 C4.58398975,78.4355415 5.86132072,77.5820344 7.34179688,76.9492188 C8.82227303,76.3164031 10.3749919,76 12,76 C13.6250081,76 15.177727,76.3164031 16.6582031,76.9492188 Z" id="Facebook"></path>
                </g>
            </g>
        </g>
    </g>
</svg>