<?xml version="1.0" encoding="UTF-8" standalone="no"?>
<svg width="24px" height="24px" viewBox="0 0 24 24" version="1.1" xmlns="http://www.w3.org/2000/svg" xmlns:xlink="http://www.w3.org/1999/xlink">
    <!-- Generator: Sketch 3.6.1 (26313) - http://www.bohemiancoding.com/sketch -->
    <title>linkedin</title>
    <desc>Created with Sketch.</desc>
    <defs></defs>
    <g id="Welcome" stroke="none" stroke-width="1" fill="none" fill-rule="evenodd">
        <g id="Mobile-Portrait" transform="translate(-192.000000, -1345.000000)" fill="#6A6A6A">
            <path d="M204,1345 C205.632821,1345 207.189446,1345.3164 208.669922,1345.94922 C210.150398,1346.58203 211.425776,1347.43359 212.496094,1348.50391 C213.566412,1349.57422 214.417966,1350.8496 215.050781,1352.33008 C215.683597,1353.81055 216,1355.36718 216,1357 C216,1358.63282 215.683597,1360.18945 215.050781,1361.66992 C214.417966,1363.1504 213.566412,1364.42578 212.496094,1365.49609 C211.425776,1366.56641 210.150398,1367.41797 208.669922,1368.05078 C207.189446,1368.6836 205.632821,1369 204,1369 C202.367179,1369 200.810554,1368.6836 199.330078,1368.05078 C197.849602,1367.41797 196.574224,1366.56641 195.503906,1365.49609 C194.433588,1364.42578 193.582034,1363.1504 192.949219,1361.66992 C192.316403,1360.18945 192,1358.63282 192,1357 C192,1355.36718 192.316403,1353.81055 192.949219,1352.33008 C193.582034,1350.8496 194.433588,1349.57422 195.503906,1348.50391 C196.574224,1347.43359 197.849602,1346.58203 199.330078,1345.94922 C200.810554,1345.3164 202.367179,1345 204,1345 L204,1345 Z M198.996094,1353.00391 C199.597659,1353.00391 200.082029,1352.83594 200.449219,1352.5 C200.816408,1352.16406 201,1351.7461 201,1351.24609 C200.984375,1350.73828 200.796877,1350.32031 200.4375,1349.99219 C200.078123,1349.66406 199.597659,1349.5 198.996094,1349.5 C198.402341,1349.5 197.921877,1349.66406 197.554688,1349.99219 C197.187498,1350.32031 197.003906,1350.73828 197.003906,1351.24609 C197.003906,1351.7461 197.185545,1352.16406 197.548828,1352.5 C197.912111,1352.83594 198.386716,1353.00391 198.972656,1353.00391 L198.996094,1353.00391 Z M200.496094,1363 L200.496094,1354.50391 L197.496094,1354.50391 L197.496094,1363 L200.496094,1363 Z M211.5,1363 L211.5,1358.5 C211.5,1357.12499 211.183597,1356.03125 210.550781,1355.21875 C209.917966,1354.40625 209.066412,1354 207.996094,1354 C207.402341,1354 206.886721,1354.16211 206.449219,1354.48633 C206.011717,1354.81055 205.695313,1355.25 205.5,1355.80469 L205.394531,1354.50391 L202.417969,1354.50391 L202.5,1356.49609 L202.5,1363 L205.5,1363 L205.5,1358.5 C205.5,1357.88281 205.630858,1357.39453 205.892578,1357.03516 C206.154298,1356.67578 206.515623,1356.49609 206.976562,1356.49609 C207.468752,1356.49609 207.845702,1356.64844 208.107422,1356.95312 C208.369142,1357.25781 208.5,1357.77343 208.5,1358.5 L208.5,1363 L211.5,1363 Z" id="linkedin"></path>
        </g>
    </g>
</svg>