<?xml version="1.0" encoding="UTF-8" standalone="no"?>
<svg width="24px" height="24px" viewBox="0 0 24 24" version="1.1" xmlns="http://www.w3.org/2000/svg" xmlns:xlink="http://www.w3.org/1999/xlink">
    <!-- Generator: Sketch 3.6.1 (26313) - http://www.bohemiancoding.com/sketch -->
    <title>mail</title>
    <desc>Created with Sketch.</desc>
    <defs></defs>
    <g id="Welcome" stroke="none" stroke-width="1" fill="none" fill-rule="evenodd">
        <g id="Mobile-Portrait" transform="translate(-214.000000, -1466.000000)" fill="#6A6A6A">
            <path d="M226,1466 C227.625008,1466 229.177727,1466.31836 230.658203,1466.95508 C232.138679,1467.5918 233.414057,1468.44531 234.484375,1469.51562 C235.554693,1470.58594 236.4082,1471.86132 237.044922,1473.3418 C237.681644,1474.82227 238,1476.37499 238,1478 C238,1479.63282 237.681644,1481.18945 237.044922,1482.66992 C236.4082,1484.1504 235.554693,1485.42578 234.484375,1486.49609 C233.414057,1487.56641 232.138679,1488.41797 230.658203,1489.05078 C229.177727,1489.6836 227.625008,1490 226,1490 C224.367179,1490 222.810554,1489.6836 221.330078,1489.05078 C219.849602,1488.41797 218.574224,1487.56641 217.503906,1486.49609 C216.433588,1485.42578 215.582034,1484.1504 214.949219,1482.66992 C214.316403,1481.18945 214,1479.63282 214,1478 C214,1476.37499 214.316403,1474.82227 214.949219,1473.3418 C215.582034,1471.86132 216.433588,1470.58594 217.503906,1469.51562 C218.574224,1468.44531 219.849602,1467.5918 221.330078,1466.95508 C222.810554,1466.31836 224.367179,1466 226,1466 L226,1466 Z M226,1479.05469 L233.5,1473.44141 C233.5,1473.17578 233.408204,1472.95313 233.224609,1472.77344 C233.041015,1472.59375 232.816408,1472.50391 232.550781,1472.50391 L219.449219,1472.50391 C219.183592,1472.50391 218.958985,1472.59375 218.775391,1472.77344 C218.591796,1472.95313 218.5,1473.17578 218.5,1473.44141 L226,1479.05469 Z M233.5,1482.55859 L233.5,1475.38672 L226,1481 L218.5,1475.38672 L218.5,1482.55859 C218.5,1482.82422 218.591796,1483.04687 218.775391,1483.22656 C218.958985,1483.40625 219.183592,1483.49609 219.449219,1483.49609 L232.550781,1483.49609 C232.816408,1483.49609 233.041015,1483.40625 233.224609,1483.22656 C233.408204,1483.04687 233.5,1482.82422 233.5,1482.55859 L233.5,1482.55859 Z" id="mail"></path>
        </g>
    </g>
</svg>