<?xml version="1.0" encoding="UTF-8" standalone="no"?>
<svg width="24px" height="24px" viewBox="0 0 24 24" version="1.1" xmlns="http://www.w3.org/2000/svg" xmlns:xlink="http://www.w3.org/1999/xlink">
    <!-- Generator: Sketch 3.6.1 (26313) - http://www.bohemiancoding.com/sketch -->
    <title>octocat</title>
    <desc>Created with Sketch.</desc>
    <defs></defs>
    <g id="Welcome" stroke="none" stroke-width="1" fill="none" fill-rule="evenodd">
        <g id="Mobile-Portrait" transform="translate(-148.000000, -1345.000000)" fill="#6A6A6A">
            <path d="M160,1345 C161.625008,1345 163.177727,1345.31836 164.658203,1345.95508 C166.138679,1346.5918 167.414057,1347.44531 168.484375,1348.51562 C169.554693,1349.58594 170.4082,1350.86132 171.044922,1352.3418 C171.681644,1353.82227 172,1355.37499 172,1357 C172,1358.82813 171.609379,1360.55273 170.828125,1362.17383 C170.046871,1363.79493 168.974616,1365.16601 167.611328,1366.28711 C166.24804,1367.40821 164.710946,1368.1914 163,1368.63672 L163,1365.49609 C163,1364.90234 162.904298,1364.31836 162.712891,1363.74414 C162.521483,1363.16992 162.199221,1362.70703 161.746094,1362.35547 C162.839849,1362.19141 163.814449,1361.88086 164.669922,1361.42383 C165.525395,1360.96679 166.210935,1360.35547 166.726562,1359.58984 C167.24219,1358.82421 167.5,1357.96094 167.5,1357 C167.5,1355.74218 167.035161,1354.59376 166.105469,1353.55469 C166.44922,1352.03124 166.414065,1350.84766 166,1350.00391 C164.992182,1350.08984 163.835944,1350.53125 162.53125,1351.32812 C161.617183,1351.10937 160.773441,1351 160,1351 C159.226559,1351 158.382817,1351.10937 157.46875,1351.32812 C156.164056,1350.53125 155.007818,1350.08984 154,1350.00391 C153.562498,1350.88672 153.527342,1352.07031 153.894531,1353.55469 C152.964839,1354.59376 152.5,1355.74218 152.5,1357 C152.5,1357.96094 152.75781,1358.82421 153.273438,1359.58984 C153.789065,1360.35547 154.474605,1360.96679 155.330078,1361.42383 C156.185551,1361.88086 157.160151,1362.19141 158.253906,1362.35547 C157.824217,1362.6836 157.500001,1363.14062 157.28125,1363.72656 C156.937498,1363.73438 156.589846,1363.70313 156.238281,1363.63281 C155.886717,1363.5625 155.566408,1363.4707 155.277344,1363.35742 C154.98828,1363.24414 154.708986,1363.11914 154.439453,1362.98242 C154.169921,1362.8457 153.933595,1362.70703 153.730469,1362.56641 C153.527343,1362.42578 153.34961,1362.29688 153.197266,1362.17969 C153.044921,1362.0625 152.929688,1361.96875 152.851562,1361.89844 L152.722656,1361.78125 C152.589843,1361.64844 152.460938,1361.62891 152.335938,1361.72266 C152.187499,1361.80859 152.132812,1361.9375 152.171875,1362.10938 C152.210938,1362.21094 152.238281,1362.28125 152.253906,1362.32031 C152.269531,1362.35938 152.347656,1362.50781 152.488281,1362.76562 C152.628907,1363.02344 152.767577,1363.24414 152.904297,1363.42773 C153.041016,1363.61133 153.248045,1363.85351 153.525391,1364.1543 C153.802736,1364.45508 154.095702,1364.7168 154.404297,1364.93945 C154.712892,1365.16211 155.093748,1365.39258 155.546875,1365.63086 C156.000002,1365.86914 156.484372,1366.06641 157,1366.22266 L157,1368.63672 C155.289054,1368.1914 153.75196,1367.40821 152.388672,1366.28711 C151.025384,1365.16601 149.953129,1363.79493 149.171875,1362.17383 C148.390621,1360.55273 148,1358.82813 148,1357 C148,1355.37499 148.316403,1353.82227 148.949219,1352.3418 C149.582034,1350.86132 150.433588,1349.58594 151.503906,1348.51562 C152.574224,1347.44531 153.849602,1346.5918 155.330078,1345.95508 C156.810554,1345.31836 158.367179,1345 160,1345 L160,1345 Z" id="octocat"></path>
        </g>
    </g>
</svg>