<?xml version="1.0" encoding="UTF-8" standalone="no"?>
<svg width="25px" height="24px" viewBox="0 0 25 24" version="1.1" xmlns="http://www.w3.org/2000/svg" xmlns:xlink="http://www.w3.org/1999/xlink">
    <!-- Generator: Sketch 40.1 (33804) - http://www.bohemiancoding.com/sketch -->
    <title>RSS</title>
    <desc>Created with Sketch.</desc>
    <defs></defs>
    <g id="Welcome" stroke="none" stroke-width="1" fill-rule="evenodd">
        <g id="Desktop-HD" transform="translate(-1375.000000, -454.000000)">
            <g id="Group-4" transform="translate(1375.000000, 453.000000)">
                <g id="Group-3" transform="translate(0.000000, 1.000000)">
                    <path d="M12.3333333,0 C13.9583414,0 15.5110603,0.318356191 16.9915364,0.955078125 C18.4720126,1.59180006 19.7473905,2.44530715 20.8177083,3.515625 C21.8880262,4.58594285 22.7415333,5.86132072 23.3782552,7.34179688 C24.0149771,8.82227303 24.3333333,10.3749919 24.3333333,12 C24.3333333,13.6328207 24.0149771,15.1894457 23.3782552,16.6699219 C22.7415333,18.150398 21.8880262,19.4257759 20.8177083,20.4960938 C19.7473905,21.5664116 18.4720126,22.4179656 16.9915364,23.0507812 C15.5110603,23.6835969 13.9583414,24 12.3333333,24 C10.7005126,24 9.14388759,23.6835969 7.66341144,23.0507812 C6.18293529,22.4179656 4.90755742,21.5664116 3.83723956,20.4960938 C2.76692171,19.4257759 1.91536773,18.150398 1.28255206,16.6699219 C0.649736399,15.1894457 0.333333313,13.6328207 0.333333313,12 C0.333333313,10.3749919 0.649736399,8.82227303 1.28255206,7.34179688 C1.91536773,5.86132072 2.76692171,4.58594285 3.83723956,3.515625 C4.90755742,2.44530715 6.18293529,1.59180006 7.66341144,0.955078125 C9.14388759,0.318356191 10.7005126,0 12.3333333,0 L12.3333333,0 Z M17.3372396,18 L19.8333333,18 C19.8333333,16.1718659 19.475915,14.4257896 18.7610677,12.7617188 C18.0462204,11.0976479 17.0852925,9.66211541 15.8782552,8.45507812 C14.6712179,7.24804084 13.2356854,6.28711295 11.5716146,5.57226562 C9.90754374,4.8574183 8.16146745,4.5 6.33333331,4.5 L6.33333331,6.99609375 C7.82552827,6.99609375 9.25129527,7.28710646 10.6106771,7.86914062 C11.9700589,8.45117479 13.139969,9.23241697 14.1204427,10.2128906 C15.1009163,11.1933643 15.8821585,12.3632745 16.4641927,13.7226562 C17.0462268,15.082038 17.3372396,16.507805 17.3372396,18 L17.3372396,18 Z M12.8372396,18 L15.3333333,18 C15.3333333,16.3671793 14.9309936,14.861335 14.1263021,13.4824219 C13.3216105,12.1035087 12.2298246,11.0117228 10.8509114,10.2070312 C9.47199829,9.40233973 7.96615398,9 6.33333331,9 L6.33333331,11.4960938 C7.50521417,11.4960938 8.59114081,11.7871065 9.59114581,12.3691406 C10.5911508,12.9511748 11.3821585,13.7421825 11.9641927,14.7421875 C12.5462268,15.7421925 12.8372396,16.8281191 12.8372396,18 L12.8372396,18 Z M8.33723956,18 C8.89192984,18 9.36262825,17.8046895 9.74934894,17.4140625 C10.1360696,17.0234355 10.3294271,16.550784 10.3294271,15.9960938 C10.3294271,15.4414035 10.1360696,14.9707051 9.74934894,14.5839844 C9.36262825,14.1972637 8.89192984,14.0039062 8.33723956,14.0039062 C7.78254929,14.0039062 7.30989777,14.1972637 6.91927081,14.5839844 C6.52864386,14.9707051 6.33333331,15.4414035 6.33333331,15.9960938 C6.33333331,16.550784 6.52864386,17.0234355 6.91927081,17.4140625 C7.30989777,17.8046895 7.78254929,18 8.33723956,18 L8.33723956,18 Z" id="RSS"></path>
                </g>
            </g>
        </g>
    </g>
</svg>
