<?xml version="1.0" encoding="UTF-8" standalone="no"?>
<svg width="14px" height="14px" viewBox="0 0 14 14" version="1.1" xmlns="http://www.w3.org/2000/svg" xmlns:xlink="http://www.w3.org/1999/xlink" xmlns:sketch="http://www.bohemiancoding.com/sketch/ns">
    <!-- Generator: Sketch 3.4.2 (15857) - http://www.bohemiancoding.com/sketch -->
    <title>search</title>
    <desc>Created with Sketch.</desc>
    <defs></defs>
    <g id="Dashboard" stroke="none" stroke-width="1" fill-rule="evenodd" sketch:type="MSPage">
        <g id="Views-score-progress-over-time" sketch:type="MSArtboardGroup" transform="translate(-714.000000, -29.000000)">
            <path d="M722.166667,38.9152082 C723.29445,38.9152082 724.25694,38.5166011 725.054167,37.7193749 C725.851393,36.9221487 726.25,35.9596583 726.25,34.8318749 C726.25,33.7040915 725.851393,32.7416011 725.054167,31.9443749 C724.25694,31.1471487 723.29445,30.7485416 722.166667,30.7485416 C721.038883,30.7485416 720.076393,31.1471487 719.279167,31.9443749 C718.48194,32.7416011 718.083333,33.7040915 718.083333,34.8318749 C718.083333,35.9596583 718.48194,36.9221487 719.279167,37.7193749 C720.076393,38.5166011 721.038883,38.9152082 722.166667,38.9152082 L722.166667,38.9152082 Z M722.166667,28.9985416 C723.780564,28.9985416 725.156244,29.5672859 726.29375,30.7047916 C727.431256,31.8422972 728,33.2179779 728,34.8318749 C728,36.4457718 727.431256,37.8214525 726.29375,38.9589582 C725.156244,40.0964639 723.780564,40.6652082 722.166667,40.6652082 C721.311107,40.6652082 720.50417,40.49021 719.745833,40.1402082 L716.23125,42.7214582 C715.920137,42.9547927 715.575002,43.0422918 715.195833,42.9839582 C714.816665,42.9256246 714.510418,42.7409042 714.277083,42.4297916 C714.09236,42.1770125 714,41.8975014 714,41.5912499 C714,41.2849984 714.09236,41.0054873 714.277083,40.7527082 L716.858333,37.2527082 C716.508332,36.4943711 716.333333,35.6874347 716.333333,34.8318749 C716.333333,33.2179779 716.902078,31.8422972 718.039583,30.7047916 C719.177089,29.5672859 720.55277,28.9985416 722.166667,28.9985416 L722.166667,28.9985416 Z" id="search" sketch:type="MSShapeGroup" transform="translate(721.000000, 36.000000) scale(-1, 1) translate(-721.000000, -36.000000) "></path>
        </g>
    </g>
</svg>
