<?xml version="1.0" encoding="UTF-8" standalone="no"?>
<svg width="24px" height="24px" viewBox="0 0 24 24" version="1.1" xmlns="http://www.w3.org/2000/svg" xmlns:xlink="http://www.w3.org/1999/xlink">
    <!-- Generator: Sketch 40 (33762) - http://www.bohemiancoding.com/sketch -->
    <title>share</title>
    <desc>Created with Sketch.</desc>
    <defs></defs>
    <g id="Welcome" stroke="none" stroke-width="1" fill-rule="evenodd">
        <g id="Desktop-HD" transform="translate(-1375.000000, -454.000000)">
            <g id="Group-4" transform="translate(1375.000000, 453.000000)">
                <g id="Group-3" transform="translate(0.000000, 1.000000)">
                    <path d="M12,0 C13.6250081,0 15.177727,0.316403086 16.6582031,0.94921875 C18.1386793,1.58203441 19.4160103,2.4355415 20.4902344,3.50976562 C21.5644585,4.58398975 22.4179656,5.86132072 23.0507812,7.34179688 C23.6835969,8.82227303 24,10.3749919 24,12 C24,13.6250081 23.6835969,15.177727 23.0507812,16.6582031 C22.4179656,18.1386793 21.5644585,19.4160103 20.4902344,20.4902344 C19.4160103,21.5644585 18.1386793,22.4179656 16.6582031,23.0507812 C15.177727,23.6835969 13.6250081,24 12,24 C10.3749919,24 8.82227303,23.6835969 7.34179688,23.0507812 C5.86132072,22.4179656 4.58398975,21.5644585 3.50976562,20.4902344 C2.4355415,19.4160103 1.58203441,18.1386793 0.94921875,16.6582031 C0.316403086,15.177727 0,13.6250081 0,12 C0,10.3749919 0.316403086,8.82227303 0.94921875,7.34179688 C1.58203441,5.86132072 2.4355415,4.58398975 3.50976562,3.50976562 C4.58398975,2.4355415 5.86132072,1.58203441 7.34179688,0.94921875 C8.82227303,0.316403086 10.3749919,0 12,0 L12,0 Z M14.0390625,14.5898438 L8.859375,12 L14.0390625,9.41015625 C14.5468775,9.8007832 15.1171843,9.99609375 15.75,9.99609375 C16.5078163,9.99609375 17.1562473,9.7285183 17.6953125,9.19335938 C18.2343777,8.65820045 18.5039062,8.01172254 18.5039062,7.25390625 C18.5039062,6.49608996 18.2363308,5.84765895 17.7011719,5.30859375 C17.1660129,4.76952855 16.5156288,4.5 15.75,4.5 C14.9843712,4.5 14.3339871,4.76952855 13.7988281,5.30859375 C13.2636692,5.84765895 12.9960938,6.49608996 12.9960938,7.25390625 L12.9960938,7.32421875 L7.95703125,9.84375 C7.45702875,9.44531051 6.88672195,9.24609375 6.24609375,9.24609375 C5.48827746,9.24609375 4.84179955,9.5156223 4.30664062,10.0546875 C3.7714817,10.5937527 3.50390625,11.2421837 3.50390625,12 C3.50390625,12.7578163 3.7714817,13.4062473 4.30664062,13.9453125 C4.84179955,14.4843777 5.48827746,14.7539062 6.24609375,14.7539062 C6.88672195,14.7539062 7.45702875,14.5546895 7.95703125,14.15625 L12.9960938,16.6757812 L12.9960938,16.7460938 C12.9960938,17.50391 13.2636692,18.1523411 13.7988281,18.6914062 C14.3339871,19.2304714 14.9843712,19.5 15.75,19.5 C16.5156288,19.5 17.1660129,19.2304714 17.7011719,18.6914062 C18.2363308,18.1523411 18.5039062,17.50391 18.5039062,16.7460938 C18.5039062,15.9882775 18.2343777,15.3417996 17.6953125,14.8066406 C17.1562473,14.2714817 16.5078163,14.0039062 15.75,14.0039062 C15.1171843,14.0039062 14.5468775,14.1992168 14.0390625,14.5898438 L14.0390625,14.5898438 Z" id="share"></path>
                </g>
            </g>
        </g>
    </g>
</svg>
