<?xml version="1.0" encoding="UTF-8" standalone="no"?>
<svg width="25px" height="24px" viewBox="0 0 25 24" version="1.1" xmlns="http://www.w3.org/2000/svg" xmlns:xlink="http://www.w3.org/1999/xlink">
    <!-- Generator: Sketch 3.6.1 (26313) - http://www.bohemiancoding.com/sketch -->
    <title>twitter</title>
    <desc>Created with Sketch.</desc>
    <defs></defs>
    <g id="Welcome" stroke="none" stroke-width="1" fill-rule="evenodd">
        <g id="Mobile-Portrait" transform="translate(-103.000000, -1345.000000)">
            <path d="M115.166667,1345 C116.799487,1345 118.356112,1345.3164 119.836588,1345.94922 C121.317065,1346.58203 122.592442,1347.43359 123.66276,1348.50391 C124.733078,1349.57422 125.584632,1350.8496 126.217448,1352.33008 C126.850263,1353.81055 127.166667,1355.36718 127.166667,1357 C127.166667,1358.63282 126.850263,1360.18945 126.217448,1361.66992 C125.584632,1363.1504 124.733078,1364.42578 123.66276,1365.49609 C122.592442,1366.56641 121.317065,1367.41797 119.836588,1368.05078 C118.356112,1368.6836 116.799487,1369 115.166667,1369 C113.533846,1369 111.977221,1368.6836 110.496745,1368.05078 C109.016269,1367.41797 107.740891,1366.56641 106.670573,1365.49609 C105.600255,1364.42578 104.748701,1363.1504 104.115885,1361.66992 C103.48307,1360.18945 103.166667,1358.63282 103.166667,1357 C103.166667,1355.36718 103.48307,1353.81055 104.115885,1352.33008 C104.748701,1350.8496 105.600255,1349.57422 106.670573,1348.50391 C107.740891,1347.43359 109.016269,1346.58203 110.496745,1345.94922 C111.977221,1345.3164 113.533846,1345 115.166667,1345 L115.166667,1345 Z M122.467448,1354.36328 C123.076826,1353.93359 123.643226,1353.34766 124.166667,1352.60547 C123.533851,1352.8711 122.877607,1353.05078 122.197917,1353.14453 C122.91667,1352.72265 123.404947,1352.08985 123.66276,1351.24609 C123.006507,1351.63672 122.295577,1351.91406 121.529948,1352.07812 C120.865882,1351.35937 120.041671,1351 119.057292,1351 C118.111974,1351 117.311201,1351.33203 116.654948,1351.99609 C115.998695,1352.66016 115.670573,1353.46875 115.670573,1354.42188 C115.670573,1354.71094 115.697916,1354.96875 115.752604,1355.19531 C114.35416,1355.125 113.043626,1354.77344 111.820963,1354.14062 C110.598301,1353.50781 109.557296,1352.66407 108.697917,1351.60938 C108.40104,1352.16407 108.252604,1352.73828 108.252604,1353.33203 C108.252604,1353.91797 108.387368,1354.45898 108.656901,1354.95508 C108.926434,1355.45117 109.291664,1355.85547 109.752604,1356.16797 C109.213539,1356.16797 108.701825,1356.02735 108.217448,1355.74609 L108.217448,1355.78125 C108.217448,1356.60157 108.475258,1357.32422 108.990885,1357.94922 C109.506513,1358.57422 110.15885,1358.97266 110.947917,1359.14453 C110.705728,1359.21484 110.408856,1359.25 110.057292,1359.25 C109.846353,1359.25 109.631511,1359.23047 109.41276,1359.19141 C109.623699,1359.8711 110.020179,1360.42187 110.602213,1360.84375 C111.184248,1361.26563 111.84635,1361.48437 112.588542,1361.5 C111.252597,1362.53907 109.842455,1363.05859 108.358073,1363.05859 C108.240885,1363.05859 107.975262,1363.03906 107.561198,1363 C109.100268,1364.00001 110.838532,1364.5 112.776042,1364.5 C113.986985,1364.5 115.123693,1364.3086 116.186198,1363.92578 C117.248703,1363.54297 118.156897,1363.0293 118.910807,1362.38477 C119.664717,1361.74023 120.313148,1361 120.85612,1360.16406 C121.399091,1359.32812 121.803384,1358.45508 122.06901,1357.54492 C122.334637,1356.63476 122.467448,1355.72266 122.467448,1354.80859 L122.467448,1354.36328 Z" id="twitter"></path>
        </g>
    </g>
</svg>
